<svg xmlns="http://www.w3.org/2000/svg" version="1.1" width="1998" height="1998" viewBox="0 0 1998 1998">
    <!-- Created with https://api.qrserver.com (QR Code API, see goQR.me/api for information) -->
    <title>QR Code</title>
    <desc>https://drive.google.com/uc?export=download&amp;id=1_OzkzzTxcbH5SgrVr5yZ2Ij59dfF4bpr</desc>
    <rect style="fill:rgb(255, 255, 255);fill-opacity:1" x="0" y="0" width="1998" height="1998" />
    <g id="elements">
        <path style="fill:rgb(0, 0, 0)" d="M 0,0 l 54,0 0,54 -54,0 z M 54,0 l 54,0 0,54 -54,0 z M 108,0 l 54,0 0,54 -54,0 z M 162,0 l 54,0 0,54 -54,0 z M 216,0 l 54,0 0,54 -54,0 z M 270,0 l 54,0 0,54 -54,0 z M 324,0 l 54,0 0,54 -54,0 z M 540,0 l 54,0 0,54 -54,0 z M 648,0 l 54,0 0,54 -54,0 z M 702,0 l 54,0 0,54 -54,0 z M 756,0 l 54,0 0,54 -54,0 z M 810,0 l 54,0 0,54 -54,0 z M 1026,0 l 54,0 0,54 -54,0 z M 1188,0 l 54,0 0,54 -54,0 z M 1242,0 l 54,0 0,54 -54,0 z M 1404,0 l 54,0 0,54 -54,0 z M 1512,0 l 54,0 0,54 -54,0 z M 1620,0 l 54,0 0,54 -54,0 z M 1674,0 l 54,0 0,54 -54,0 z M 1728,0 l 54,0 0,54 -54,0 z M 1782,0 l 54,0 0,54 -54,0 z M 1836,0 l 54,0 0,54 -54,0 z M 1890,0 l 54,0 0,54 -54,0 z M 1944,0 l 54,0 0,54 -54,0 z M 0,54 l 54,0 0,54 -54,0 z M 324,54 l 54,0 0,54 -54,0 z M 432,54 l 54,0 0,54 -54,0 z M 540,54 l 54,0 0,54 -54,0 z M 702,54 l 54,0 0,54 -54,0 z M 756,54 l 54,0 0,54 -54,0 z M 810,54 l 54,0 0,54 -54,0 z M 864,54 l 54,0 0,54 -54,0 z M 918,54 l 54,0 0,54 -54,0 z M 972,54 l 54,0 0,54 -54,0 z M 1350,54 l 54,0 0,54 -54,0 z M 1458,54 l 54,0 0,54 -54,0 z M 1512,54 l 54,0 0,54 -54,0 z M 1620,54 l 54,0 0,54 -54,0 z M 1944,54 l 54,0 0,54 -54,0 z M 0,108 l 54,0 0,54 -54,0 z M 108,108 l 54,0 0,54 -54,0 z M 162,108 l 54,0 0,54 -54,0 z M 216,108 l 54,0 0,54 -54,0 z M 324,108 l 54,0 0,54 -54,0 z M 648,108 l 54,0 0,54 -54,0 z M 702,108 l 54,0 0,54 -54,0 z M 810,108 l 54,0 0,54 -54,0 z M 972,108 l 54,0 0,54 -54,0 z M 1026,108 l 54,0 0,54 -54,0 z M 1134,108 l 54,0 0,54 -54,0 z M 1242,108 l 54,0 0,54 -54,0 z M 1512,108 l 54,0 0,54 -54,0 z M 1620,108 l 54,0 0,54 -54,0 z M 1728,108 l 54,0 0,54 -54,0 z M 1782,108 l 54,0 0,54 -54,0 z M 1836,108 l 54,0 0,54 -54,0 z M 1944,108 l 54,0 0,54 -54,0 z M 0,162 l 54,0 0,54 -54,0 z M 108,162 l 54,0 0,54 -54,0 z M 162,162 l 54,0 0,54 -54,0 z M 216,162 l 54,0 0,54 -54,0 z M 324,162 l 54,0 0,54 -54,0 z M 432,162 l 54,0 0,54 -54,0 z M 486,162 l 54,0 0,54 -54,0 z M 540,162 l 54,0 0,54 -54,0 z M 648,162 l 54,0 0,54 -54,0 z M 756,162 l 54,0 0,54 -54,0 z M 810,162 l 54,0 0,54 -54,0 z M 1026,162 l 54,0 0,54 -54,0 z M 1080,162 l 54,0 0,54 -54,0 z M 1188,162 l 54,0 0,54 -54,0 z M 1242,162 l 54,0 0,54 -54,0 z M 1296,162 l 54,0 0,54 -54,0 z M 1350,162 l 54,0 0,54 -54,0 z M 1404,162 l 54,0 0,54 -54,0 z M 1620,162 l 54,0 0,54 -54,0 z M 1728,162 l 54,0 0,54 -54,0 z M 1782,162 l 54,0 0,54 -54,0 z M 1836,162 l 54,0 0,54 -54,0 z M 1944,162 l 54,0 0,54 -54,0 z M 0,216 l 54,0 0,54 -54,0 z M 108,216 l 54,0 0,54 -54,0 z M 162,216 l 54,0 0,54 -54,0 z M 216,216 l 54,0 0,54 -54,0 z M 324,216 l 54,0 0,54 -54,0 z M 486,216 l 54,0 0,54 -54,0 z M 810,216 l 54,0 0,54 -54,0 z M 864,216 l 54,0 0,54 -54,0 z M 918,216 l 54,0 0,54 -54,0 z M 972,216 l 54,0 0,54 -54,0 z M 1080,216 l 54,0 0,54 -54,0 z M 1404,216 l 54,0 0,54 -54,0 z M 1512,216 l 54,0 0,54 -54,0 z M 1620,216 l 54,0 0,54 -54,0 z M 1728,216 l 54,0 0,54 -54,0 z M 1782,216 l 54,0 0,54 -54,0 z M 1836,216 l 54,0 0,54 -54,0 z M 1944,216 l 54,0 0,54 -54,0 z M 0,270 l 54,0 0,54 -54,0 z M 324,270 l 54,0 0,54 -54,0 z M 432,270 l 54,0 0,54 -54,0 z M 486,270 l 54,0 0,54 -54,0 z M 594,270 l 54,0 0,54 -54,0 z M 648,270 l 54,0 0,54 -54,0 z M 972,270 l 54,0 0,54 -54,0 z M 1080,270 l 54,0 0,54 -54,0 z M 1404,270 l 54,0 0,54 -54,0 z M 1458,270 l 54,0 0,54 -54,0 z M 1620,270 l 54,0 0,54 -54,0 z M 1944,270 l 54,0 0,54 -54,0 z M 0,324 l 54,0 0,54 -54,0 z M 54,324 l 54,0 0,54 -54,0 z M 108,324 l 54,0 0,54 -54,0 z M 162,324 l 54,0 0,54 -54,0 z M 216,324 l 54,0 0,54 -54,0 z M 270,324 l 54,0 0,54 -54,0 z M 324,324 l 54,0 0,54 -54,0 z M 432,324 l 54,0 0,54 -54,0 z M 540,324 l 54,0 0,54 -54,0 z M 648,324 l 54,0 0,54 -54,0 z M 756,324 l 54,0 0,54 -54,0 z M 864,324 l 54,0 0,54 -54,0 z M 972,324 l 54,0 0,54 -54,0 z M 1080,324 l 54,0 0,54 -54,0 z M 1188,324 l 54,0 0,54 -54,0 z M 1296,324 l 54,0 0,54 -54,0 z M 1404,324 l 54,0 0,54 -54,0 z M 1512,324 l 54,0 0,54 -54,0 z M 1620,324 l 54,0 0,54 -54,0 z M 1674,324 l 54,0 0,54 -54,0 z M 1728,324 l 54,0 0,54 -54,0 z M 1782,324 l 54,0 0,54 -54,0 z M 1836,324 l 54,0 0,54 -54,0 z M 1890,324 l 54,0 0,54 -54,0 z M 1944,324 l 54,0 0,54 -54,0 z M 486,378 l 54,0 0,54 -54,0 z M 540,378 l 54,0 0,54 -54,0 z M 594,378 l 54,0 0,54 -54,0 z M 756,378 l 54,0 0,54 -54,0 z M 864,378 l 54,0 0,54 -54,0 z M 1134,378 l 54,0 0,54 -54,0 z M 1188,378 l 54,0 0,54 -54,0 z M 1242,378 l 54,0 0,54 -54,0 z M 1458,378 l 54,0 0,54 -54,0 z M 0,432 l 54,0 0,54 -54,0 z M 54,432 l 54,0 0,54 -54,0 z M 108,432 l 54,0 0,54 -54,0 z M 162,432 l 54,0 0,54 -54,0 z M 216,432 l 54,0 0,54 -54,0 z M 324,432 l 54,0 0,54 -54,0 z M 378,432 l 54,0 0,54 -54,0 z M 432,432 l 54,0 0,54 -54,0 z M 486,432 l 54,0 0,54 -54,0 z M 594,432 l 54,0 0,54 -54,0 z M 864,432 l 54,0 0,54 -54,0 z M 918,432 l 54,0 0,54 -54,0 z M 1026,432 l 54,0 0,54 -54,0 z M 1080,432 l 54,0 0,54 -54,0 z M 1188,432 l 54,0 0,54 -54,0 z M 1242,432 l 54,0 0,54 -54,0 z M 1350,432 l 54,0 0,54 -54,0 z M 1458,432 l 54,0 0,54 -54,0 z M 1512,432 l 54,0 0,54 -54,0 z M 1566,432 l 54,0 0,54 -54,0 z M 1674,432 l 54,0 0,54 -54,0 z M 1782,432 l 54,0 0,54 -54,0 z M 1890,432 l 54,0 0,54 -54,0 z M 0,486 l 54,0 0,54 -54,0 z M 54,486 l 54,0 0,54 -54,0 z M 108,486 l 54,0 0,54 -54,0 z M 216,486 l 54,0 0,54 -54,0 z M 270,486 l 54,0 0,54 -54,0 z M 486,486 l 54,0 0,54 -54,0 z M 540,486 l 54,0 0,54 -54,0 z M 648,486 l 54,0 0,54 -54,0 z M 702,486 l 54,0 0,54 -54,0 z M 756,486 l 54,0 0,54 -54,0 z M 810,486 l 54,0 0,54 -54,0 z M 918,486 l 54,0 0,54 -54,0 z M 972,486 l 54,0 0,54 -54,0 z M 1026,486 l 54,0 0,54 -54,0 z M 1080,486 l 54,0 0,54 -54,0 z M 1188,486 l 54,0 0,54 -54,0 z M 1350,486 l 54,0 0,54 -54,0 z M 1404,486 l 54,0 0,54 -54,0 z M 1512,486 l 54,0 0,54 -54,0 z M 1674,486 l 54,0 0,54 -54,0 z M 1782,486 l 54,0 0,54 -54,0 z M 1836,486 l 54,0 0,54 -54,0 z M 1890,486 l 54,0 0,54 -54,0 z M 54,540 l 54,0 0,54 -54,0 z M 162,540 l 54,0 0,54 -54,0 z M 324,540 l 54,0 0,54 -54,0 z M 540,540 l 54,0 0,54 -54,0 z M 702,540 l 54,0 0,54 -54,0 z M 756,540 l 54,0 0,54 -54,0 z M 810,540 l 54,0 0,54 -54,0 z M 864,540 l 54,0 0,54 -54,0 z M 918,540 l 54,0 0,54 -54,0 z M 972,540 l 54,0 0,54 -54,0 z M 1080,540 l 54,0 0,54 -54,0 z M 1404,540 l 54,0 0,54 -54,0 z M 1458,540 l 54,0 0,54 -54,0 z M 1566,540 l 54,0 0,54 -54,0 z M 1674,540 l 54,0 0,54 -54,0 z M 1728,540 l 54,0 0,54 -54,0 z M 1782,540 l 54,0 0,54 -54,0 z M 1836,540 l 54,0 0,54 -54,0 z M 1944,540 l 54,0 0,54 -54,0 z M 0,594 l 54,0 0,54 -54,0 z M 54,594 l 54,0 0,54 -54,0 z M 108,594 l 54,0 0,54 -54,0 z M 162,594 l 54,0 0,54 -54,0 z M 216,594 l 54,0 0,54 -54,0 z M 378,594 l 54,0 0,54 -54,0 z M 540,594 l 54,0 0,54 -54,0 z M 648,594 l 54,0 0,54 -54,0 z M 702,594 l 54,0 0,54 -54,0 z M 810,594 l 54,0 0,54 -54,0 z M 972,594 l 54,0 0,54 -54,0 z M 1080,594 l 54,0 0,54 -54,0 z M 1134,594 l 54,0 0,54 -54,0 z M 1296,594 l 54,0 0,54 -54,0 z M 1404,594 l 54,0 0,54 -54,0 z M 1458,594 l 54,0 0,54 -54,0 z M 1620,594 l 54,0 0,54 -54,0 z M 1674,594 l 54,0 0,54 -54,0 z M 1782,594 l 54,0 0,54 -54,0 z M 1890,594 l 54,0 0,54 -54,0 z M 54,648 l 54,0 0,54 -54,0 z M 162,648 l 54,0 0,54 -54,0 z M 216,648 l 54,0 0,54 -54,0 z M 270,648 l 54,0 0,54 -54,0 z M 324,648 l 54,0 0,54 -54,0 z M 378,648 l 54,0 0,54 -54,0 z M 432,648 l 54,0 0,54 -54,0 z M 486,648 l 54,0 0,54 -54,0 z M 648,648 l 54,0 0,54 -54,0 z M 756,648 l 54,0 0,54 -54,0 z M 810,648 l 54,0 0,54 -54,0 z M 918,648 l 54,0 0,54 -54,0 z M 972,648 l 54,0 0,54 -54,0 z M 1080,648 l 54,0 0,54 -54,0 z M 1188,648 l 54,0 0,54 -54,0 z M 1350,648 l 54,0 0,54 -54,0 z M 1404,648 l 54,0 0,54 -54,0 z M 1512,648 l 54,0 0,54 -54,0 z M 1566,648 l 54,0 0,54 -54,0 z M 1620,648 l 54,0 0,54 -54,0 z M 1728,648 l 54,0 0,54 -54,0 z M 1782,648 l 54,0 0,54 -54,0 z M 1836,648 l 54,0 0,54 -54,0 z M 1944,648 l 54,0 0,54 -54,0 z M 0,702 l 54,0 0,54 -54,0 z M 108,702 l 54,0 0,54 -54,0 z M 216,702 l 54,0 0,54 -54,0 z M 270,702 l 54,0 0,54 -54,0 z M 432,702 l 54,0 0,54 -54,0 z M 486,702 l 54,0 0,54 -54,0 z M 540,702 l 54,0 0,54 -54,0 z M 810,702 l 54,0 0,54 -54,0 z M 864,702 l 54,0 0,54 -54,0 z M 1026,702 l 54,0 0,54 -54,0 z M 1188,702 l 54,0 0,54 -54,0 z M 1242,702 l 54,0 0,54 -54,0 z M 1296,702 l 54,0 0,54 -54,0 z M 1512,702 l 54,0 0,54 -54,0 z M 1674,702 l 54,0 0,54 -54,0 z M 1836,702 l 54,0 0,54 -54,0 z M 1890,702 l 54,0 0,54 -54,0 z M 324,756 l 54,0 0,54 -54,0 z M 432,756 l 54,0 0,54 -54,0 z M 540,756 l 54,0 0,54 -54,0 z M 594,756 l 54,0 0,54 -54,0 z M 648,756 l 54,0 0,54 -54,0 z M 1404,756 l 54,0 0,54 -54,0 z M 1458,756 l 54,0 0,54 -54,0 z M 1512,756 l 54,0 0,54 -54,0 z M 1566,756 l 54,0 0,54 -54,0 z M 1620,756 l 54,0 0,54 -54,0 z M 1674,756 l 54,0 0,54 -54,0 z M 1728,756 l 54,0 0,54 -54,0 z M 1836,756 l 54,0 0,54 -54,0 z M 1890,756 l 54,0 0,54 -54,0 z M 1944,756 l 54,0 0,54 -54,0 z M 0,810 l 54,0 0,54 -54,0 z M 108,810 l 54,0 0,54 -54,0 z M 162,810 l 54,0 0,54 -54,0 z M 270,810 l 54,0 0,54 -54,0 z M 540,810 l 54,0 0,54 -54,0 z M 594,810 l 54,0 0,54 -54,0 z M 756,810 l 54,0 0,54 -54,0 z M 864,810 l 54,0 0,54 -54,0 z M 1026,810 l 54,0 0,54 -54,0 z M 1134,810 l 54,0 0,54 -54,0 z M 1458,810 l 54,0 0,54 -54,0 z M 1512,810 l 54,0 0,54 -54,0 z M 1566,810 l 54,0 0,54 -54,0 z M 1620,810 l 54,0 0,54 -54,0 z M 1674,810 l 54,0 0,54 -54,0 z M 1728,810 l 54,0 0,54 -54,0 z M 1782,810 l 54,0 0,54 -54,0 z M 1944,810 l 54,0 0,54 -54,0 z M 0,864 l 54,0 0,54 -54,0 z M 108,864 l 54,0 0,54 -54,0 z M 162,864 l 54,0 0,54 -54,0 z M 324,864 l 54,0 0,54 -54,0 z M 378,864 l 54,0 0,54 -54,0 z M 432,864 l 54,0 0,54 -54,0 z M 486,864 l 54,0 0,54 -54,0 z M 594,864 l 54,0 0,54 -54,0 z M 864,864 l 54,0 0,54 -54,0 z M 918,864 l 54,0 0,54 -54,0 z M 972,864 l 54,0 0,54 -54,0 z M 1080,864 l 54,0 0,54 -54,0 z M 1134,864 l 54,0 0,54 -54,0 z M 1188,864 l 54,0 0,54 -54,0 z M 1242,864 l 54,0 0,54 -54,0 z M 1350,864 l 54,0 0,54 -54,0 z M 1404,864 l 54,0 0,54 -54,0 z M 1458,864 l 54,0 0,54 -54,0 z M 1620,864 l 54,0 0,54 -54,0 z M 1728,864 l 54,0 0,54 -54,0 z M 1782,864 l 54,0 0,54 -54,0 z M 1836,864 l 54,0 0,54 -54,0 z M 1944,864 l 54,0 0,54 -54,0 z M 54,918 l 54,0 0,54 -54,0 z M 162,918 l 54,0 0,54 -54,0 z M 486,918 l 54,0 0,54 -54,0 z M 540,918 l 54,0 0,54 -54,0 z M 648,918 l 54,0 0,54 -54,0 z M 702,918 l 54,0 0,54 -54,0 z M 756,918 l 54,0 0,54 -54,0 z M 810,918 l 54,0 0,54 -54,0 z M 918,918 l 54,0 0,54 -54,0 z M 1026,918 l 54,0 0,54 -54,0 z M 1080,918 l 54,0 0,54 -54,0 z M 1134,918 l 54,0 0,54 -54,0 z M 1188,918 l 54,0 0,54 -54,0 z M 1242,918 l 54,0 0,54 -54,0 z M 1296,918 l 54,0 0,54 -54,0 z M 1350,918 l 54,0 0,54 -54,0 z M 1512,918 l 54,0 0,54 -54,0 z M 1674,918 l 54,0 0,54 -54,0 z M 1836,918 l 54,0 0,54 -54,0 z M 1890,918 l 54,0 0,54 -54,0 z M 0,972 l 54,0 0,54 -54,0 z M 108,972 l 54,0 0,54 -54,0 z M 162,972 l 54,0 0,54 -54,0 z M 216,972 l 54,0 0,54 -54,0 z M 324,972 l 54,0 0,54 -54,0 z M 378,972 l 54,0 0,54 -54,0 z M 432,972 l 54,0 0,54 -54,0 z M 486,972 l 54,0 0,54 -54,0 z M 702,972 l 54,0 0,54 -54,0 z M 756,972 l 54,0 0,54 -54,0 z M 810,972 l 54,0 0,54 -54,0 z M 864,972 l 54,0 0,54 -54,0 z M 972,972 l 54,0 0,54 -54,0 z M 1134,972 l 54,0 0,54 -54,0 z M 1188,972 l 54,0 0,54 -54,0 z M 1296,972 l 54,0 0,54 -54,0 z M 1350,972 l 54,0 0,54 -54,0 z M 1404,972 l 54,0 0,54 -54,0 z M 1458,972 l 54,0 0,54 -54,0 z M 1512,972 l 54,0 0,54 -54,0 z M 1566,972 l 54,0 0,54 -54,0 z M 1674,972 l 54,0 0,54 -54,0 z M 1728,972 l 54,0 0,54 -54,0 z M 1836,972 l 54,0 0,54 -54,0 z M 1890,972 l 54,0 0,54 -54,0 z M 1944,972 l 54,0 0,54 -54,0 z M 0,1026 l 54,0 0,54 -54,0 z M 54,1026 l 54,0 0,54 -54,0 z M 108,1026 l 54,0 0,54 -54,0 z M 216,1026 l 54,0 0,54 -54,0 z M 270,1026 l 54,0 0,54 -54,0 z M 486,1026 l 54,0 0,54 -54,0 z M 540,1026 l 54,0 0,54 -54,0 z M 648,1026 l 54,0 0,54 -54,0 z M 702,1026 l 54,0 0,54 -54,0 z M 810,1026 l 54,0 0,54 -54,0 z M 1026,1026 l 54,0 0,54 -54,0 z M 1080,1026 l 54,0 0,54 -54,0 z M 1134,1026 l 54,0 0,54 -54,0 z M 1404,1026 l 54,0 0,54 -54,0 z M 1512,1026 l 54,0 0,54 -54,0 z M 1674,1026 l 54,0 0,54 -54,0 z M 1728,1026 l 54,0 0,54 -54,0 z M 1944,1026 l 54,0 0,54 -54,0 z M 0,1080 l 54,0 0,54 -54,0 z M 108,1080 l 54,0 0,54 -54,0 z M 216,1080 l 54,0 0,54 -54,0 z M 270,1080 l 54,0 0,54 -54,0 z M 324,1080 l 54,0 0,54 -54,0 z M 378,1080 l 54,0 0,54 -54,0 z M 432,1080 l 54,0 0,54 -54,0 z M 486,1080 l 54,0 0,54 -54,0 z M 540,1080 l 54,0 0,54 -54,0 z M 648,1080 l 54,0 0,54 -54,0 z M 756,1080 l 54,0 0,54 -54,0 z M 810,1080 l 54,0 0,54 -54,0 z M 918,1080 l 54,0 0,54 -54,0 z M 1080,1080 l 54,0 0,54 -54,0 z M 1188,1080 l 54,0 0,54 -54,0 z M 1296,1080 l 54,0 0,54 -54,0 z M 1350,1080 l 54,0 0,54 -54,0 z M 1404,1080 l 54,0 0,54 -54,0 z M 1512,1080 l 54,0 0,54 -54,0 z M 1566,1080 l 54,0 0,54 -54,0 z M 1620,1080 l 54,0 0,54 -54,0 z M 1728,1080 l 54,0 0,54 -54,0 z M 1782,1080 l 54,0 0,54 -54,0 z M 1836,1080 l 54,0 0,54 -54,0 z M 1890,1080 l 54,0 0,54 -54,0 z M 1944,1080 l 54,0 0,54 -54,0 z M 108,1134 l 54,0 0,54 -54,0 z M 162,1134 l 54,0 0,54 -54,0 z M 378,1134 l 54,0 0,54 -54,0 z M 540,1134 l 54,0 0,54 -54,0 z M 810,1134 l 54,0 0,54 -54,0 z M 864,1134 l 54,0 0,54 -54,0 z M 972,1134 l 54,0 0,54 -54,0 z M 1080,1134 l 54,0 0,54 -54,0 z M 1188,1134 l 54,0 0,54 -54,0 z M 1242,1134 l 54,0 0,54 -54,0 z M 1404,1134 l 54,0 0,54 -54,0 z M 1674,1134 l 54,0 0,54 -54,0 z M 1890,1134 l 54,0 0,54 -54,0 z M 54,1188 l 54,0 0,54 -54,0 z M 162,1188 l 54,0 0,54 -54,0 z M 216,1188 l 54,0 0,54 -54,0 z M 324,1188 l 54,0 0,54 -54,0 z M 378,1188 l 54,0 0,54 -54,0 z M 486,1188 l 54,0 0,54 -54,0 z M 594,1188 l 54,0 0,54 -54,0 z M 648,1188 l 54,0 0,54 -54,0 z M 1134,1188 l 54,0 0,54 -54,0 z M 1350,1188 l 54,0 0,54 -54,0 z M 1404,1188 l 54,0 0,54 -54,0 z M 1458,1188 l 54,0 0,54 -54,0 z M 1512,1188 l 54,0 0,54 -54,0 z M 1620,1188 l 54,0 0,54 -54,0 z M 1674,1188 l 54,0 0,54 -54,0 z M 1728,1188 l 54,0 0,54 -54,0 z M 1782,1188 l 54,0 0,54 -54,0 z M 1890,1188 l 54,0 0,54 -54,0 z M 1944,1188 l 54,0 0,54 -54,0 z M 108,1242 l 54,0 0,54 -54,0 z M 432,1242 l 54,0 0,54 -54,0 z M 486,1242 l 54,0 0,54 -54,0 z M 594,1242 l 54,0 0,54 -54,0 z M 756,1242 l 54,0 0,54 -54,0 z M 864,1242 l 54,0 0,54 -54,0 z M 972,1242 l 54,0 0,54 -54,0 z M 1026,1242 l 54,0 0,54 -54,0 z M 1134,1242 l 54,0 0,54 -54,0 z M 1296,1242 l 54,0 0,54 -54,0 z M 1404,1242 l 54,0 0,54 -54,0 z M 1566,1242 l 54,0 0,54 -54,0 z M 1674,1242 l 54,0 0,54 -54,0 z M 1944,1242 l 54,0 0,54 -54,0 z M 0,1296 l 54,0 0,54 -54,0 z M 216,1296 l 54,0 0,54 -54,0 z M 324,1296 l 54,0 0,54 -54,0 z M 378,1296 l 54,0 0,54 -54,0 z M 432,1296 l 54,0 0,54 -54,0 z M 540,1296 l 54,0 0,54 -54,0 z M 594,1296 l 54,0 0,54 -54,0 z M 918,1296 l 54,0 0,54 -54,0 z M 1080,1296 l 54,0 0,54 -54,0 z M 1188,1296 l 54,0 0,54 -54,0 z M 1242,1296 l 54,0 0,54 -54,0 z M 1296,1296 l 54,0 0,54 -54,0 z M 1350,1296 l 54,0 0,54 -54,0 z M 1404,1296 l 54,0 0,54 -54,0 z M 1458,1296 l 54,0 0,54 -54,0 z M 1566,1296 l 54,0 0,54 -54,0 z M 1620,1296 l 54,0 0,54 -54,0 z M 1728,1296 l 54,0 0,54 -54,0 z M 1836,1296 l 54,0 0,54 -54,0 z M 1890,1296 l 54,0 0,54 -54,0 z M 1944,1296 l 54,0 0,54 -54,0 z M 0,1350 l 54,0 0,54 -54,0 z M 378,1350 l 54,0 0,54 -54,0 z M 432,1350 l 54,0 0,54 -54,0 z M 540,1350 l 54,0 0,54 -54,0 z M 648,1350 l 54,0 0,54 -54,0 z M 702,1350 l 54,0 0,54 -54,0 z M 756,1350 l 54,0 0,54 -54,0 z M 810,1350 l 54,0 0,54 -54,0 z M 972,1350 l 54,0 0,54 -54,0 z M 1026,1350 l 54,0 0,54 -54,0 z M 1080,1350 l 54,0 0,54 -54,0 z M 1134,1350 l 54,0 0,54 -54,0 z M 1242,1350 l 54,0 0,54 -54,0 z M 1350,1350 l 54,0 0,54 -54,0 z M 1512,1350 l 54,0 0,54 -54,0 z M 1674,1350 l 54,0 0,54 -54,0 z M 1782,1350 l 54,0 0,54 -54,0 z M 1890,1350 l 54,0 0,54 -54,0 z M 0,1404 l 54,0 0,54 -54,0 z M 162,1404 l 54,0 0,54 -54,0 z M 216,1404 l 54,0 0,54 -54,0 z M 270,1404 l 54,0 0,54 -54,0 z M 324,1404 l 54,0 0,54 -54,0 z M 432,1404 l 54,0 0,54 -54,0 z M 486,1404 l 54,0 0,54 -54,0 z M 702,1404 l 54,0 0,54 -54,0 z M 756,1404 l 54,0 0,54 -54,0 z M 810,1404 l 54,0 0,54 -54,0 z M 918,1404 l 54,0 0,54 -54,0 z M 1080,1404 l 54,0 0,54 -54,0 z M 1296,1404 l 54,0 0,54 -54,0 z M 1350,1404 l 54,0 0,54 -54,0 z M 1404,1404 l 54,0 0,54 -54,0 z M 1458,1404 l 54,0 0,54 -54,0 z M 1512,1404 l 54,0 0,54 -54,0 z M 1566,1404 l 54,0 0,54 -54,0 z M 1728,1404 l 54,0 0,54 -54,0 z M 1782,1404 l 54,0 0,54 -54,0 z M 1836,1404 l 54,0 0,54 -54,0 z M 1890,1404 l 54,0 0,54 -54,0 z M 1944,1404 l 54,0 0,54 -54,0 z M 0,1458 l 54,0 0,54 -54,0 z M 162,1458 l 54,0 0,54 -54,0 z M 378,1458 l 54,0 0,54 -54,0 z M 486,1458 l 54,0 0,54 -54,0 z M 540,1458 l 54,0 0,54 -54,0 z M 648,1458 l 54,0 0,54 -54,0 z M 702,1458 l 54,0 0,54 -54,0 z M 972,1458 l 54,0 0,54 -54,0 z M 1026,1458 l 54,0 0,54 -54,0 z M 1080,1458 l 54,0 0,54 -54,0 z M 1134,1458 l 54,0 0,54 -54,0 z M 1188,1458 l 54,0 0,54 -54,0 z M 1242,1458 l 54,0 0,54 -54,0 z M 1458,1458 l 54,0 0,54 -54,0 z M 1512,1458 l 54,0 0,54 -54,0 z M 1566,1458 l 54,0 0,54 -54,0 z M 1674,1458 l 54,0 0,54 -54,0 z M 1728,1458 l 54,0 0,54 -54,0 z M 1944,1458 l 54,0 0,54 -54,0 z M 0,1512 l 54,0 0,54 -54,0 z M 108,1512 l 54,0 0,54 -54,0 z M 270,1512 l 54,0 0,54 -54,0 z M 324,1512 l 54,0 0,54 -54,0 z M 378,1512 l 54,0 0,54 -54,0 z M 486,1512 l 54,0 0,54 -54,0 z M 648,1512 l 54,0 0,54 -54,0 z M 756,1512 l 54,0 0,54 -54,0 z M 810,1512 l 54,0 0,54 -54,0 z M 864,1512 l 54,0 0,54 -54,0 z M 1188,1512 l 54,0 0,54 -54,0 z M 1296,1512 l 54,0 0,54 -54,0 z M 1350,1512 l 54,0 0,54 -54,0 z M 1404,1512 l 54,0 0,54 -54,0 z M 1458,1512 l 54,0 0,54 -54,0 z M 1512,1512 l 54,0 0,54 -54,0 z M 1566,1512 l 54,0 0,54 -54,0 z M 1620,1512 l 54,0 0,54 -54,0 z M 1674,1512 l 54,0 0,54 -54,0 z M 1728,1512 l 54,0 0,54 -54,0 z M 1782,1512 l 54,0 0,54 -54,0 z M 1836,1512 l 54,0 0,54 -54,0 z M 432,1566 l 54,0 0,54 -54,0 z M 486,1566 l 54,0 0,54 -54,0 z M 540,1566 l 54,0 0,54 -54,0 z M 864,1566 l 54,0 0,54 -54,0 z M 972,1566 l 54,0 0,54 -54,0 z M 1026,1566 l 54,0 0,54 -54,0 z M 1080,1566 l 54,0 0,54 -54,0 z M 1134,1566 l 54,0 0,54 -54,0 z M 1242,1566 l 54,0 0,54 -54,0 z M 1296,1566 l 54,0 0,54 -54,0 z M 1350,1566 l 54,0 0,54 -54,0 z M 1512,1566 l 54,0 0,54 -54,0 z M 1728,1566 l 54,0 0,54 -54,0 z M 1782,1566 l 54,0 0,54 -54,0 z M 1836,1566 l 54,0 0,54 -54,0 z M 0,1620 l 54,0 0,54 -54,0 z M 54,1620 l 54,0 0,54 -54,0 z M 108,1620 l 54,0 0,54 -54,0 z M 162,1620 l 54,0 0,54 -54,0 z M 216,1620 l 54,0 0,54 -54,0 z M 270,1620 l 54,0 0,54 -54,0 z M 324,1620 l 54,0 0,54 -54,0 z M 432,1620 l 54,0 0,54 -54,0 z M 540,1620 l 54,0 0,54 -54,0 z M 594,1620 l 54,0 0,54 -54,0 z M 648,1620 l 54,0 0,54 -54,0 z M 810,1620 l 54,0 0,54 -54,0 z M 918,1620 l 54,0 0,54 -54,0 z M 1080,1620 l 54,0 0,54 -54,0 z M 1296,1620 l 54,0 0,54 -54,0 z M 1404,1620 l 54,0 0,54 -54,0 z M 1512,1620 l 54,0 0,54 -54,0 z M 1620,1620 l 54,0 0,54 -54,0 z M 1728,1620 l 54,0 0,54 -54,0 z M 1890,1620 l 54,0 0,54 -54,0 z M 1944,1620 l 54,0 0,54 -54,0 z M 0,1674 l 54,0 0,54 -54,0 z M 324,1674 l 54,0 0,54 -54,0 z M 540,1674 l 54,0 0,54 -54,0 z M 594,1674 l 54,0 0,54 -54,0 z M 756,1674 l 54,0 0,54 -54,0 z M 810,1674 l 54,0 0,54 -54,0 z M 972,1674 l 54,0 0,54 -54,0 z M 1026,1674 l 54,0 0,54 -54,0 z M 1134,1674 l 54,0 0,54 -54,0 z M 1512,1674 l 54,0 0,54 -54,0 z M 1728,1674 l 54,0 0,54 -54,0 z M 1944,1674 l 54,0 0,54 -54,0 z M 0,1728 l 54,0 0,54 -54,0 z M 108,1728 l 54,0 0,54 -54,0 z M 162,1728 l 54,0 0,54 -54,0 z M 216,1728 l 54,0 0,54 -54,0 z M 324,1728 l 54,0 0,54 -54,0 z M 432,1728 l 54,0 0,54 -54,0 z M 540,1728 l 54,0 0,54 -54,0 z M 594,1728 l 54,0 0,54 -54,0 z M 810,1728 l 54,0 0,54 -54,0 z M 864,1728 l 54,0 0,54 -54,0 z M 918,1728 l 54,0 0,54 -54,0 z M 972,1728 l 54,0 0,54 -54,0 z M 1080,1728 l 54,0 0,54 -54,0 z M 1134,1728 l 54,0 0,54 -54,0 z M 1188,1728 l 54,0 0,54 -54,0 z M 1296,1728 l 54,0 0,54 -54,0 z M 1350,1728 l 54,0 0,54 -54,0 z M 1404,1728 l 54,0 0,54 -54,0 z M 1458,1728 l 54,0 0,54 -54,0 z M 1512,1728 l 54,0 0,54 -54,0 z M 1566,1728 l 54,0 0,54 -54,0 z M 1620,1728 l 54,0 0,54 -54,0 z M 1674,1728 l 54,0 0,54 -54,0 z M 1728,1728 l 54,0 0,54 -54,0 z M 1836,1728 l 54,0 0,54 -54,0 z M 1944,1728 l 54,0 0,54 -54,0 z M 0,1782 l 54,0 0,54 -54,0 z M 108,1782 l 54,0 0,54 -54,0 z M 162,1782 l 54,0 0,54 -54,0 z M 216,1782 l 54,0 0,54 -54,0 z M 324,1782 l 54,0 0,54 -54,0 z M 432,1782 l 54,0 0,54 -54,0 z M 540,1782 l 54,0 0,54 -54,0 z M 648,1782 l 54,0 0,54 -54,0 z M 702,1782 l 54,0 0,54 -54,0 z M 756,1782 l 54,0 0,54 -54,0 z M 864,1782 l 54,0 0,54 -54,0 z M 1080,1782 l 54,0 0,54 -54,0 z M 1242,1782 l 54,0 0,54 -54,0 z M 1350,1782 l 54,0 0,54 -54,0 z M 1512,1782 l 54,0 0,54 -54,0 z M 1566,1782 l 54,0 0,54 -54,0 z M 1620,1782 l 54,0 0,54 -54,0 z M 1728,1782 l 54,0 0,54 -54,0 z M 1890,1782 l 54,0 0,54 -54,0 z M 1944,1782 l 54,0 0,54 -54,0 z M 0,1836 l 54,0 0,54 -54,0 z M 108,1836 l 54,0 0,54 -54,0 z M 162,1836 l 54,0 0,54 -54,0 z M 216,1836 l 54,0 0,54 -54,0 z M 324,1836 l 54,0 0,54 -54,0 z M 432,1836 l 54,0 0,54 -54,0 z M 486,1836 l 54,0 0,54 -54,0 z M 540,1836 l 54,0 0,54 -54,0 z M 702,1836 l 54,0 0,54 -54,0 z M 756,1836 l 54,0 0,54 -54,0 z M 810,1836 l 54,0 0,54 -54,0 z M 1080,1836 l 54,0 0,54 -54,0 z M 1134,1836 l 54,0 0,54 -54,0 z M 1350,1836 l 54,0 0,54 -54,0 z M 1404,1836 l 54,0 0,54 -54,0 z M 1512,1836 l 54,0 0,54 -54,0 z M 1782,1836 l 54,0 0,54 -54,0 z M 1836,1836 l 54,0 0,54 -54,0 z M 1890,1836 l 54,0 0,54 -54,0 z M 1944,1836 l 54,0 0,54 -54,0 z M 0,1890 l 54,0 0,54 -54,0 z M 324,1890 l 54,0 0,54 -54,0 z M 432,1890 l 54,0 0,54 -54,0 z M 486,1890 l 54,0 0,54 -54,0 z M 540,1890 l 54,0 0,54 -54,0 z M 648,1890 l 54,0 0,54 -54,0 z M 702,1890 l 54,0 0,54 -54,0 z M 972,1890 l 54,0 0,54 -54,0 z M 1080,1890 l 54,0 0,54 -54,0 z M 1134,1890 l 54,0 0,54 -54,0 z M 1296,1890 l 54,0 0,54 -54,0 z M 1404,1890 l 54,0 0,54 -54,0 z M 1458,1890 l 54,0 0,54 -54,0 z M 1512,1890 l 54,0 0,54 -54,0 z M 1566,1890 l 54,0 0,54 -54,0 z M 1674,1890 l 54,0 0,54 -54,0 z M 1944,1890 l 54,0 0,54 -54,0 z M 0,1944 l 54,0 0,54 -54,0 z M 54,1944 l 54,0 0,54 -54,0 z M 108,1944 l 54,0 0,54 -54,0 z M 162,1944 l 54,0 0,54 -54,0 z M 216,1944 l 54,0 0,54 -54,0 z M 270,1944 l 54,0 0,54 -54,0 z M 324,1944 l 54,0 0,54 -54,0 z M 432,1944 l 54,0 0,54 -54,0 z M 486,1944 l 54,0 0,54 -54,0 z M 540,1944 l 54,0 0,54 -54,0 z M 648,1944 l 54,0 0,54 -54,0 z M 756,1944 l 54,0 0,54 -54,0 z M 810,1944 l 54,0 0,54 -54,0 z M 918,1944 l 54,0 0,54 -54,0 z M 1080,1944 l 54,0 0,54 -54,0 z M 1296,1944 l 54,0 0,54 -54,0 z M 1350,1944 l 54,0 0,54 -54,0 z M 1404,1944 l 54,0 0,54 -54,0 z M 1458,1944 l 54,0 0,54 -54,0 z M 1566,1944 l 54,0 0,54 -54,0 z M 1620,1944 l 54,0 0,54 -54,0 z M 1674,1944 l 54,0 0,54 -54,0 z M 1782,1944 l 54,0 0,54 -54,0 z M 1836,1944 l 54,0 0,54 -54,0 z M 1890,1944 l 54,0 0,54 -54,0 z M 1944,1944 l 54,0 0,54 -54,0 z " />
    </g>
</svg>
