<svg width="277" height="297" viewBox="0 0 277 297" fill="none" xmlns="http://www.w3.org/2000/svg">
<path d="M127.939 218H155.939V18.5H127.939V218ZM40.789 218H71.939L124.439 121.05L108.339 92.35L40.789 218ZM81.739 44.75C76.6057 35.65 71.1807 28.7083 65.464 23.925C59.7474 19.1417 53.914 16.75 47.964 16.75C43.8807 16.75 40.5557 17.8583 37.989 20.075C35.4223 22.175 34.139 24.9167 34.139 28.3C34.139 31.2167 35.189 33.6667 37.289 35.65C39.389 37.5167 42.2474 39.3833 45.864 41.25C49.4807 43 53.739 45.0417 58.639 47.375C63.4224 49.5917 68.5557 52.5083 74.039 56.125C79.4057 59.7417 85.0057 64.35 90.839 69.95C96.5557 75.55 102.156 82.55 107.639 90.95L81.739 44.75Z" fill="white"/>
<path d="M158.46 218H130.46V18.5H158.46V218ZM161.96 218C168.494 217.3 174.152 216.192 178.935 214.675C183.719 213.158 187.919 211.408 191.535 209.425C195.269 207.442 198.477 205.4 201.16 203.3C203.844 201.2 206.294 199.275 208.51 197.525C210.844 195.658 213.002 194.2 214.985 193.15C216.969 191.983 219.127 191.4 221.46 191.4C224.96 191.4 227.819 192.683 230.035 195.25C232.252 197.7 233.36 200.617 233.36 204C233.36 208.2 231.552 211.583 227.935 214.15C224.319 216.717 219.244 218 212.71 218H161.96Z" fill="white"/>
</svg>
