<svg width="301" height="276" viewBox="0 0 301 276" fill="none" xmlns="http://www.w3.org/2000/svg">
<path d="M141.499 207H169.499V7.49998H141.499V207ZM54.349 207H85.499L137.999 110.05L121.899 81.35L54.349 207ZM95.299 33.75C90.1657 24.65 84.7407 17.7083 79.024 12.925C73.3074 8.14165 67.474 5.74998 61.524 5.74998C57.4407 5.74998 54.1157 6.85832 51.549 9.07499C48.9823 11.175 47.699 13.9167 47.699 17.3C47.699 20.2167 48.749 22.6667 50.849 24.65C52.949 26.5167 55.8073 28.3833 59.424 30.25C63.0407 32 67.299 34.0417 72.199 36.375C76.9824 38.5917 82.1157 41.5083 87.599 45.125C92.9657 48.7417 98.5657 53.35 104.399 58.95C110.116 64.55 115.716 71.55 121.199 79.95L95.299 33.75Z" fill="black"/>
<path d="M168.9 207H140.9V7.49998H168.9V207ZM172.4 207C178.934 206.3 184.592 205.192 189.375 203.675C194.159 202.158 198.359 200.408 201.975 198.425C205.709 196.442 208.917 194.4 211.6 192.3C214.284 190.2 216.734 188.275 218.95 186.525C221.284 184.658 223.442 183.2 225.425 182.15C227.409 180.983 229.567 180.4 231.9 180.4C235.4 180.4 238.259 181.683 240.475 184.25C242.692 186.7 243.8 189.617 243.8 193C243.8 197.2 241.992 200.583 238.375 203.15C234.759 205.717 229.684 207 223.15 207H172.4Z" fill="black"/>
</svg>
